/* XPM */
static char *underworld[] = {
/* columns rows colors chars-per-pixel */
"32 32 126 2 ",
"   c #11EB018100F8",
".  c #09BF12C71482",
"X  c #5685360F1163",
"o  c #5E2C3A181182",
"O  c #631F3C9D1168",
"+  c #68DF3F8A1143",
"@  c #76D9350036A1",
"#  c #6B4141E6138F",
"$  c #67DE45821E65",
"%  c #6D0845AF1996",
"&  c #6E8448611D38",
"*  c #72AA4ACA1DBC",
"=  c #6EEF4D3E2775",
"-  c #72954EB9269E",
";  c #71D44EE427C2",
":  c #7F59515020D6",
">  c #765359643761",
",  c #7DFC5B9433C1",
"<  c #7A4E5D423CC0",
"1  c #65B86B1672F1",
"2  c #856529152864",
"3  c #F2923D6C3AED",
"4  c #82F152941F9C",
"5  c #836753B82174",
"6  c #86A4591E290B",
"7  c #89B35C1E2BC9",
"8  c #8FE9685F3DC3",
"9  c #D5D6435C426E",
"0  c #EEBB44EA451B",
"q  c #E3D148244731",
"w  c #E4214ECA4EB9",
"e  c #EFBC494C481C",
"r  c #F32945B343E2",
"t  c #F2F2483B46A0",
"y  c #F16C4B9D4A75",
"u  c #FA144E224CF4",
"i  c #E750546C5513",
"p  c #EA6F537453B0",
"a  c #EB35590A5999",
"s  c #D7EE620D6501",
"d  c #D9E66BCD6F77",
"f  c #D9726C9A706A",
"g  c #DFBA70E7749D",
"h  c #EDE5614B69F7",
"j  c #E2B56B816E82",
"k  c #7E729DB356A3",
"l  c #6FE49C5B75C2",
"z  c #B53093A02D9F",
"x  c #B6AC987D30F8",
"c  c #B9679D0B374F",
"v  c #E01B87253A08",
"b  c #E19D91963ABE",
"n  c #E62FB1EB3BC1",
"m  c #E2DFD6553F12",
"M  c #EAF7D2943CEB",
"N  c #EBE6DB9E3D47",
"B  c #992EB4766E87",
"V  c #DD5B932771E5",
"C  c #DE39D3964001",
"Z  c #5D507D058730",
"A  c #EAD1768488F8",
"S  c #77A6A5C886D3",
"D  c #7F61AE2D9698",
"F  c #BB1A8FF894FF",
"G  c #BEFB946F9D07",
"H  c #8006AEEF97F0",
"J  c #8066AF5A98C0",
"K  c #BEE296B8A07C",
"L  c #849CB4CCA2F0",
"P  c #8A5ABAC9ADB9",
"I  c #9831BF97BF3B",
"U  c #C6A786678E10",
"Y  c #C24C8BF29473",
"T  c #CF1D8DBA9564",
"R  c #C81C912E99B6",
"E  c #CDDC94719CD6",
"W  c #D1E3924A9C9C",
"Q  c #CD2A9769A062",
"!  c #CCD598A2A17A",
"~  c #C9719FBCA99C",
"^  c #C988A0C2AAF7",
"/  c #D1BECF8C92FF",
"(  c #C1BFD70C92A7",
")  c #CD1FDFAF9B52",
"_  c #D371D13C9562",
"`  c #CEB4E2159DA3",
"'  c #B61BB5E8C34D",
"]  c #BC48BB07C855",
"[  c #C209BD30C943",
"{  c #95A8C7DAC5BC",
"}  c #9676C8AEC74B",
"|  c #9620C912C9A5",
" . c #9749C6ECD6FD",
".. c #9BB9CEBDD26B",
"X. c #9AD6D195D5CC",
"o. c #A5CCCE39D760",
"O. c #A285CA6AD965",
"+. c #B00BD049E032",
"@. c #B268CF2FDF0A",
"#. c #A1F6D605DFC6",
"$. c #BA45D0CCDE90",
"%. c #A1EDD5FEE332",
"&. c #ACE8D554E604",
"*. c #A5D6DA5DE7C0",
"=. c #AE7BD7EBE8DF",
"-. c #A772DC64EBF7",
";. c #AC8CDD50EECF",
":. c #B2F0D404E478",
">. c #B2D5D847EDED",
",. c #AA98DFDAF1EF",
"<. c #B1A5DAF3F108",
"1. c #A81AE541F804",
"2. c #AADAE16AF45E",
"3. c #A7B0E48DF8C5",
"4. c #AA12E4E1F8FF",
"5. c #A709E88AFBB1",
"6. c #B416E369F383",
"7. c #BACBE5E8F48A",
"8. c #C0F9D534DF0D",
"9. c #C17CE857F5AE",
"0. c #C3A7E9B6F687",
"q. c #CD0AECC3F793",
"w. c #C0DDEBBAF940",
"e. c #CA7AED37F8DA",
"r. c #D650F05DF929",
"t. c #D729F168FA05",
/* pixels */
",.,.,.,.,.,.,.,.,.,.,.,.,.,.,.,.,.,.,.0.7.,.,.,.,.9.9.,.,.,.,.,.",
",.,.,.,.,.,.,.,.,.,.,.,.,.,.,.,.,.,.;.6.q.7.,.,.7.q.6.;.,.,.,.,.",
",.,.,.,.,.,.,.,.,.,.,.,.,.,.,.,.,.,.,.,.7.q.e.e.q.7.,.,.,.,.,.,.",
",.,.,.,.,.,.,.,.,.,.,.,.,.,.,.,.,.6.6.2.,.,.6.6.,.,.,.,.,.,.,.,.",
",.,.,.,.,.,.,.,.,.,.,.2.,.,.,.,.7.q.q.q.6.;.,.,.,.,.,.,.,.,.,.,.",
",.,.,.,.,.,.,.,.,.,.,.,.,.,.,.2.q.6.,.9.9.,.,.,.,.,.,.,.,.,.,.,.",
",.,.,.,.,.,.,.,.,.,.,.,.,.,.;.6.q.,.,.7.e.,.,.,.,.,.,.,.,.,.,.,.",
",.,.2.,.,.,.,.,.,.,.,.,.,.,.2.2.q.0.7.q.7.,.,.,.2.2.2.,.,.,.,.,.",
",.,.,.,.,.,.,.,.,.,.,.,.,.2.] E [ w.e.7.,.,.7.,.] E ] ,.,.,.,.,.",
",.,.,.,.,.,.,.,.,.,.,.,.2.4.E 3 E 2.,.,.,.0.r.w.E 3 E 4.,.,.,.,.",
",.2.,.,.,.,.,.,.,.,.,.,.] E R Y ' ,.2.,.,.0.t.w.' Y R E ] ,.,.,.",
",.;.2.2.,.,.,.,.,.,.,.2.E r E 5.,.,.<.e.6.,.<.,.,.5.E r E 1.,.,.",
",.2.{ { ,.,.,.,.,.,.,.2.Q t g ~ =.,.w.t.0.,.,.,.=.^ g t E 1.,.,.",
",.2.H H ,.,.*.*.,.,.,.2.Q t e i @.%.O.8.$.O. .%.@.i e t E 2.,.,.",
"2.} J } ,.2.L L 2.,.,.3.Q t f K <.Z . @ w @ . S ;.G f t E 1.,.,.",
"6.D J 4.,.-.J L 6.,.=.~ g t Q 2.:.1   2 r @   1 :.4.E t g ^ =.2.",
"2.{ H } 2.L H ;.,.,.+.a t t ! =.j w 9 q y q 9 i d :.! t t a +.,.",
"2.;.J L 2.{ H } ,.,.+.s p y f U p u y e e u y y p U f y p s +.2.",
"2.P J #.2.;.J L 2.,.,.&.T e e e y y e p p y u p y e e y T &.;.,.",
";.;.J L 2.P J #.,.,.=.^ g t y y y y y y y e e e y y y t g ^ =.2.",
"2.{ J { 2.%.J P 2.2.@.i 0 0 e e y y y y y y e y y y e t 0 p @.,.",
"2.{ J { 2.P J #.,.,.o.G Y Y d t y y y t y y y t y y f Y F F o.,.",
"2.} J { 2.#.H P 2.%.S X.2.5.Q t h A A A A A A A h t Q 3.4.L L 2.",
"2.| J } 2.L J -.,.,...l %.4.Q t W <.<.>.>.>.>.<.W t ! 3.} J | 2.",
"2.| J | 4.| J | ,.-.P L %.~ g t ! 5.,.,.,.,.,.3.Q t f ^ I J | 4.",
"` B B ` ) ` B B ` ( k ( / p 0 0 V ` ` ) ` ) ) ) V 0 e p _ B B ` ",
"N m m N N N m m N N C m M b v v n N N N m N N N n v v b M m m N ",
"z z z z z z z z z z z z z z z z z z z z z z z z z x c z z z z z ",
"4 4 5 5 7 6 5 5 5 5 4 5 5 5 7 5 5 5 5 5 : : 5 5 6 6 8 5 5 5 5 5 ",
"- , + ; 7 = = O + * 6 + % + , * + + ; % + 6 - % = + % ; + , * % ",
"+ * % < % O + * # % - + ; % + + - + % O # - + + + & + % + - + ; ",
"O X O X O o O > % o o O o O X o > = o X X O o o o > $ O o o O O "
};
