/* XPM */
static char *underworld[] = {
/* columns rows colors chars-per-pixel */
"64 64 50 1 ",
"  c black",
". c #515133331111",
"X c #6C6C42421313",
"o c #D3D333333232",
"O c #D3D335353434",
"+ c #9C9C68682F2F",
"@ c #EFEF4E4E4D4D",
"# c #F0F04C4C4B4B",
"$ c #595982824646",
"% c #C1C1B2B22424",
"& c #ECECDDDD4444",
"* c #EEEEDEDE4444",
"= c #9D9D9D9D9D9D",
"- c #F4F48E8EB9B9",
"; c #A7A7DCDCECEC",
": c #ACACDBDBECEC",
"> c #A8A8DDDDEEEE",
", c #ACACDCDCEDED",
"< c #A9A9DEDEF0F0",
"1 c #AAAADEDEF0F0",
"2 c #AAAADFDFF0F0",
"3 c #AAAADFDFF1F1",
"4 c #ACACE0E0F1F1",
"5 c #ADADE0E0F1F1",
"6 c #ADADE0E0F2F2",
"7 c #B1B1E2E2F2F2",
"8 c #B8B8E4E4F3F3",
"9 c #B9B9E5E5F4F4",
"0 c #BABAE5E5F4F4",
"q c #BDBDE6E6F4F4",
"w c #BEBEE7E7F4F4",
"e c #C2C2E8E8F5F5",
"r c #C3C3E8E8F5F5",
"t c #C6C6EAEAF6F6",
"y c #D5D5EFEFF8F8",
"u c #D6D6EFEFF8F8",
"i c #D7D7F0F0F8F8",
"p c #DADAF1F1F9F9",
"a c #DBDBF1F1F9F9",
"s c #EDEDF0F0EBEB",
"d c #E2E2F4F4FAFA",
"f c #E3E3F4F4FAFA",
"g c #ECECF8F8FCFC",
"h c #EFEFF9F9FCFC",
"j c #F0F0F9F9FDFD",
"k c #F3F3FBFBFDFD",
"l c #F4F4FBFBFDFD",
"z c #F7F7FCFCFEFE",
"x c #F8F8FCFCFEFE",
"c c #FDFDFEFEFFFF",
/* pixels */
"333333333333333333333333333333333333333jq3333333333qj33333333333",
"333333333333333333333333333333333333333up4333333333aa33333333333",
"3333333333333333333333333333333333333337x9333333339x733333333333",
"3333333333333333333333333333333333333333tl8333333qlt333333333333",
"33333333333333333333333333333333333333333txpq43qaxt3333333333333",
"3333333333333333333333333333333333333333337pjcchu733333333333333",
"3333333333333333333333333333333333333333333343333333333333333333",
"3333333333333333333333333333333333333333333333333333333333333333",
"3333333333333333333333333333333333ulchi4433333333333333333333333",
"333333333333333333333333333333333hd948fg433333333333333333333333",
"33333333333333333333333333333333uf33333fu33333333333333333333333",
"33333333333333333333333333333333j9333338j33333333333333333333333",
"33333333333333333333333333333333c3333333c43333333333333333333333",
"33333333333333333333333333333333jq333338j43333333333333333333333",
"33333333333333333333333333333333if333>3dp33333333333333333333333",
"333333333333333333333333333333333hf93qfh343333333333333333333333",
"33333333333333333333333333333333>4ihlhu433>333333333333333333333",
"33333333333333333333333333333####4334334333333333@#@#33333333333",
"33333333333333333333333333333###@4334443,43txlr3>####33333333333",
"33333333333333333333333333333###@33334>3434leqx33####33333333333",
"33333333333333333333333333333oooo3333>4333>lqqx33oooo33333333333",
"3333333333333333333333333####33333333434434wlxt333333####3333333",
"3333333333333333333333333####33333334344>344333333333####3333333",
"3333333333333333333333333####33333334wlxw343333333333####3333333",
"3333333333333334333333333@###33333333leqx333333333333####3333333",
"33333$$33333333>333333333@######33333lqql333333333#######3333333",
"33333$$33333334>33333333>#######33333exlt333333333#######3333333",
"33333$$33333333>333333333#######333333343333333333#######3333333",
"33333$$333333$$3;43333333####ooo333    oooo    333ooo####3333333",
"333$$33333333$$3333333333####333333    ####    333333####3333333",
"333$$33333333$$3333333343####333333    ####    333333####3333333",
"333$$33333333$$333333;#######333333    ####    333333#######3333",
"333$$333333$$333333333#######333##################333#######3333",
"33333$$3333$$3>3>333>;#######333##################333#######3333",
"33333$$3333$$333333333#######333##################333#######3333",
"33333$$33333>$$3>33333ooo####ooo##################ooo####ooo3333",
"333$$33333333$$333>333333################################3333333",
"333$$33333333$$333:333333################################3333333",
"33333$$3333$$33333433>333################################3333333",
"33333$$3333$$33>333333######################################3333",
"33333$$333333$$3333334######################################3333",
"333$$33333333$$33333>>######################################3333",
"333$$333333$$>33333344ooooooo########################Ooooooo3333",
"33333$$3333$$33>>333>>4333333########################:3333333333",
"33333$$3>343,$$3>34>$$;;33333########################3333>>$$333",
"333$$33333334$$34433$$4433333####----------------####333333$$333",
"333$$333434$$333333334$$33333####3333333333333333####333333$$333",
"33333$$3>33$$34>>334>4$$33333####3333333333333333###@3333$$33333",
"33333$$7333$$33>>33333$$33333###@3333333333333333####3333$$33333",
"333$$73333373$$33333$$3333######@3333333333333333#######333$$333",
"333$$33333333$$33333$$3333#######>333333333333333#######333$$333",
"*&*$$***&&*&&$$&****$$****#######****************#######***$$***",
"*&&&********&&&&**********ooooooo****************ooooooO********",
"&&&&********&&&&************************************************",
"%%%%%%%%%%%%%%%%%%%%%%%%%%%%%%%%%%%%%%%%%%%%%%%%%%%%%%%%%%%%%%%%",
"++++++++++++++++++++++++++++++++++++++++++++++++++++++++++++++++",
"++++++++++++++++++++++++++++++++++++++++++++++++++++s+++++++++++",
"XXXXXXXXXXXXXXXXXXXXXXXXXXXXXXXXXXXXXXXXX.XXXXXXXXXXXXXXXXXXXXXX",
"XXXXXXX.gXX=XXXXXXXXXXX.XXXXXsXXXXXXXXXXXXXXXXXX=XXXXXXXX.XXXXXX",
"XXs.XXXXXXXXXXX.XXXXsXXXXXXXXX.XXXXXX=XXXXXsXXXXX.XXXX=XXXXsXXXX",
"XXXXXX==XXXXXXXXXXXXXXXXX=XXXXXXXXXXXX.XXXXXXXXXXXXXX.XXXXXXXXX=",
"X.XXXXXXXXX.XXXXXXXXXXXX.XXXXXXXXXXXXXXXXXXXX..XXX.XXXXXXXXXX.XX",
"XXX.XXX.XXXXXXXsXXXXXXXXXXXX..XXXsXXXX...XXXXXXXXXXsXXXXX.XXXXXX",
"................................................................"
};
